<svg width="100" height="100" viewBox="0 0 100 100" fill="none" xmlns="http://www.w3.org/2000/svg">
<g clip-path="url(#clip0_1137_12914)">
<path d="M49.9999 0C22.3751 0 0 22.3751 0 50C0 77.6249 22.3751 100 49.9999 100C77.6247 100 100 77.6251 100 50C100 22.3749 77.6249 0 49.9999 0ZM10.0001 50C10.0001 27.9 27.9 9.99986 50.0001 9.99986C59.2502 9.99986 67.7252 13.1749 74.5 18.425L18.4249 74.5002C13.1749 67.7251 10.0001 59.2501 10.0001 50ZM49.9999 90.0001C40.7498 90.0001 32.2748 86.8251 25.5 81.5751L81.5749 25.5C86.8249 32.2751 89.9999 40.7501 89.9999 50C89.9999 72.1002 72.1 90.0001 49.9999 90.0001Z" fill="white"/>
</g>
<defs>
<clipPath id="clip0_1137_12914">
<rect width="100" height="100" fill="white"/>
</clipPath>
</defs>
</svg>
