<svg width="100" height="100" viewBox="0 0 100 100" fill="none" xmlns="http://www.w3.org/2000/svg">
<path d="M35.3163 56.25H27.6633C26.4005 56.25 25.3673 55.1953 25.3673 53.9062V46.0938C25.3673 44.8047 26.4005 43.75 27.6633 43.75H35.3163C36.5791 43.75 37.6122 44.8047 37.6122 46.0938V53.9062C37.6122 55.1953 36.5791 56.25 35.3163 56.25ZM55.9796 53.9062V46.0938C55.9796 44.8047 54.9464 43.75 53.6837 43.75H46.0306C44.7679 43.75 43.7347 44.8047 43.7347 46.0938V53.9062C43.7347 55.1953 44.7679 56.25 46.0306 56.25H53.6837C54.9464 56.25 55.9796 55.1953 55.9796 53.9062ZM74.3469 53.9062V46.0938C74.3469 44.8047 73.3138 43.75 72.051 43.75H64.398C63.1352 43.75 62.102 44.8047 62.102 46.0938V53.9062C62.102 55.1953 63.1352 56.25 64.398 56.25H72.051C73.3138 56.25 74.3469 55.1953 74.3469 53.9062ZM55.9796 72.6562V64.8438C55.9796 63.5547 54.9464 62.5 53.6837 62.5H46.0306C44.7679 62.5 43.7347 63.5547 43.7347 64.8438V72.6562C43.7347 73.9453 44.7679 75 46.0306 75H53.6837C54.9464 75 55.9796 73.9453 55.9796 72.6562ZM37.6122 72.6562V64.8438C37.6122 63.5547 36.5791 62.5 35.3163 62.5H27.6633C26.4005 62.5 25.3673 63.5547 25.3673 64.8438V72.6562C25.3673 73.9453 26.4005 75 27.6633 75H35.3163C36.5791 75 37.6122 73.9453 37.6122 72.6562ZM74.3469 72.6562V64.8438C74.3469 63.5547 73.3138 62.5 72.051 62.5H64.398C63.1352 62.5 62.102 63.5547 62.102 64.8438V72.6562C62.102 73.9453 63.1352 75 64.398 75H72.051C73.3138 75 74.3469 73.9453 74.3469 72.6562ZM92.7143 21.875V90.625C92.7143 95.8008 88.6008 100 83.5306 100H16.1837C11.1135 100 7 95.8008 7 90.625V21.875C7 16.6992 11.1135 12.5 16.1837 12.5H25.3673V2.34375C25.3673 1.05469 26.4005 0 27.6633 0H35.3163C36.5791 0 37.6122 1.05469 37.6122 2.34375V12.5H62.102V2.34375C62.102 1.05469 63.1352 0 64.398 0H72.051C73.3138 0 74.3469 1.05469 74.3469 2.34375V12.5H83.5306C88.6008 12.5 92.7143 16.6992 92.7143 21.875ZM83.5306 89.4531V31.25H16.1837V89.4531C16.1837 90.0977 16.7003 90.625 17.3316 90.625H82.3827C83.014 90.625 83.5306 90.0977 83.5306 89.4531Z" fill="white"/>
</svg>
