<svg width="100" height="100" viewBox="0 0 100 100" fill="none" xmlns="http://www.w3.org/2000/svg">
<g clip-path="url(#clip0_1137_12836)">
<g clip-path="url(#clip1_1137_12836)">
<path d="M85.194 33.1301C84.1184 32.2053 83.0378 31.3219 81.954 30.4758L69.3171 43.1127C70.087 45.2665 70.5079 47.585 70.5079 50.0001C70.5079 61.3081 61.3081 70.5079 50.0001 70.5079C47.585 70.5079 45.2665 70.087 43.1128 69.3169L33.6288 78.8008C39.1671 81.0727 44.6602 82.2266 50.0001 82.2266C56.3784 82.2266 62.9751 80.5868 69.6063 77.3526C74.8137 74.8126 80.0583 71.2856 85.194 66.87C93.8766 59.404 99.2255 52.0215 99.4487 51.7108C100.184 50.6889 100.184 49.3114 99.4487 48.2893C99.2253 47.9786 93.8766 40.5961 85.194 33.1301Z" fill="white"/>
<path d="M50.0001 64.6483C58.0772 64.6483 64.6485 58.077 64.6485 49.9999C64.6485 49.2971 64.5958 48.6065 64.4995 47.9299L47.9302 64.4993C48.6069 64.5956 49.2974 64.6483 50.0001 64.6483Z" fill="white"/>
<path d="M99.1422 0.857959C97.9982 -0.285986 96.1431 -0.285986 94.999 0.857959L71.9818 23.8751C71.1896 23.4439 70.3976 23.0332 69.6064 22.6474C62.9752 19.413 56.3785 17.7732 50.0002 17.7732C43.6218 17.7732 37.0251 19.413 30.3939 22.6472C25.1865 25.1873 19.9419 28.7142 14.8062 33.1298C6.12378 40.5958 0.774951 47.9783 0.551514 48.289C-0.183838 49.3109 -0.183838 50.6884 0.551514 51.7105C0.774951 52.0212 6.12358 59.4038 14.8062 66.8697C17.4669 69.1574 20.157 71.204 22.8558 73.0007L0.85835 94.9986C-0.285791 96.1425 -0.285791 97.9976 0.85835 99.1417C1.43042 99.7136 2.18003 99.9997 2.92983 99.9997C3.67964 99.9997 4.42944 99.7136 5.00132 99.1415L99.142 5.00093C100.286 3.85698 100.286 2.0019 99.1422 0.857959ZM29.4923 49.9997C29.4923 38.6917 38.6921 29.4919 50.0002 29.4919C54.6 29.4919 58.8507 31.0142 62.2755 33.5814L58.0724 37.7845C55.7562 36.2486 52.9816 35.3513 50.0002 35.3513C41.923 35.3513 35.3517 41.9226 35.3517 49.9997C35.3517 52.981 36.249 55.7556 37.7849 58.072L33.5818 62.2751C31.0146 58.8503 29.4923 54.5996 29.4923 49.9997Z" fill="white"/>
</g>
</g>
<defs>
<clipPath id="clip0_1137_12836">
<rect width="100" height="100" fill="white"/>
</clipPath>
<clipPath id="clip1_1137_12836">
<rect width="100" height="100" fill="white"/>
</clipPath>
</defs>
</svg>
