<svg width="100" height="100" viewBox="0 0 100 100" fill="none" xmlns="http://www.w3.org/2000/svg">
<g clip-path="url(#clip0_1137_12211)">
<path d="M29.132 88.3577C31.2145 81.9484 30.648 76.0199 27.8666 75.1162C25.0851 74.2125 21.1421 78.6756 19.0596 85.085C16.977 91.4944 17.5436 97.4228 20.325 98.3266C23.1064 99.2303 27.0494 94.7671 29.132 88.3577Z" fill="#F6E266"/>
<path d="M23.002 85.1042C21.2074 90.6235 21.3766 95.7865 23.2368 97.6917C22.2141 98.3802 21.212 98.6354 20.327 98.3464C17.5458 97.4411 16.9813 91.5129 19.065 85.1042C21.1487 78.6952 25.0925 74.2322 27.8737 75.1351C28.2596 75.2615 28.605 75.4851 28.9031 75.792C26.7111 77.2684 24.4221 80.7337 23.002 85.1042Z" fill="#FFD064"/>
<path d="M78.8529 98.3638C81.6343 97.46 82.2008 91.5316 80.1183 85.1222C78.0358 78.7129 74.0928 74.2497 71.3113 75.1534C68.5299 76.0572 67.9634 81.9856 70.0459 88.395C72.1285 94.8043 76.0715 99.2675 78.8529 98.3638Z" fill="#F6E266"/>
<path d="M80.226 97.3034C79.858 97.8136 79.4066 98.1725 78.8739 98.3463C76.0904 99.2515 72.1467 94.7885 70.063 88.3796C67.9793 81.9685 68.5437 76.0403 71.3249 75.1351C72.0542 74.8979 72.8646 75.0312 73.6998 75.4714C72.149 77.6251 72.1015 82.4898 73.7855 87.6707C75.3252 92.4002 77.876 96.0686 80.226 97.3034Z" fill="#FFD064"/>
<path d="M93.095 8.2132C95.3628 8.2132 97.2012 6.37478 97.2012 4.10697C97.2012 1.83916 95.3628 0.000732422 93.095 0.000732422C90.8272 0.000732422 88.9888 1.83916 88.9888 4.10697C88.9888 6.37478 90.8272 8.2132 93.095 8.2132Z" fill="#E7A561"/>
<path d="M6.10624 8.2132C8.37405 8.2132 10.2125 6.37478 10.2125 4.10697C10.2125 1.83916 8.37405 0.000732422 6.10624 0.000732422C3.83842 0.000732422 2 1.83916 2 4.10697C2 6.37478 3.83842 8.2132 6.10624 8.2132Z" fill="#E7A561"/>
<path d="M80.9417 32.5179C89.9211 32.5179 97.2003 25.2387 97.2003 16.2593C97.2003 7.27995 89.9211 0.000732422 80.9417 0.000732422C71.9623 0.000732422 64.6831 7.27995 64.6831 16.2593C64.6831 25.2387 71.9623 32.5179 80.9417 32.5179Z" fill="#F6E266"/>
<path d="M94.9683 8.03282C92.5551 6.61279 89.7445 5.80008 86.7421 5.80008C77.7619 5.80008 70.4816 13.0781 70.4816 22.0583C70.4816 25.0607 71.2943 27.8713 72.7143 30.2846C67.9104 27.4605 64.6846 22.2368 64.6846 16.2613C64.6846 7.28107 71.9649 0.000732422 80.9428 0.000732422C86.9204 0.000732422 92.1442 3.22676 94.9683 8.03282Z" fill="#FFD064"/>
<path d="M18.2586 32.5179C27.238 32.5179 34.5172 25.2387 34.5172 16.2593C34.5172 7.27995 27.238 0.000732422 18.2586 0.000732422C9.27922 0.000732422 2 7.27995 2 16.2593C2 25.2387 9.27922 32.5179 18.2586 32.5179Z" fill="#F6E266"/>
<path d="M21.8679 32.1168C20.7054 32.3787 19.4977 32.5187 18.2582 32.5187C9.27803 32.5187 2 25.2384 2 16.2605C2.00019 7.28034 9.27822 0 18.2584 0C19.4977 0 20.7054 0.140003 21.8681 0.401739C14.6262 2.04293 9.21726 8.51959 9.21726 16.2603C9.21726 23.9991 14.626 30.4758 21.8679 32.1168Z" fill="#FFD064"/>
<path d="M49.5995 91.9246C74.0789 91.9246 93.9233 72.0802 93.9233 47.6009C93.9233 23.1215 74.0789 3.2771 49.5995 3.2771C25.1202 3.2771 5.27576 23.1215 5.27576 47.6009C5.27576 72.0802 25.1202 91.9246 49.5995 91.9246Z" fill="#DD636E"/>
<path d="M52.445 91.8358C51.5043 91.8933 50.5548 91.925 49.5996 91.925C25.1187 91.925 5.27563 72.0791 5.27563 47.6011C5.27563 23.1231 25.1187 3.2771 49.5996 3.2771C50.5548 3.2771 51.5043 3.30883 52.445 3.36633C29.299 4.84521 10.9838 24.0841 10.9838 47.6011C10.9838 71.1181 29.299 90.3571 52.445 91.8358Z" fill="#CB5769"/>
<path d="M49.5993 81.4771C68.3086 81.4771 83.4755 66.3102 83.4755 47.6009C83.4755 28.8915 68.3086 13.7246 49.5993 13.7246C30.8899 13.7246 15.723 28.8915 15.723 47.6009C15.723 66.3102 30.8899 81.4771 49.5993 81.4771Z" fill="#D3EFFB"/>
<path d="M55.5186 80.9866C53.6428 81.3118 51.7122 81.4785 49.7442 81.4785C31.0348 81.4785 15.8668 66.3107 15.8668 47.6011C15.8668 28.8915 31.0348 13.7239 49.7442 13.7239C51.7122 13.7239 53.6426 13.8908 55.5186 14.2158C39.5625 16.9547 27.4184 30.8596 27.4184 47.6011C27.4184 64.3426 39.5625 78.2475 55.5186 80.9866Z" fill="#9DC6FB"/>
<path d="M49.5994 51.9165H33.8606C31.4773 51.9165 29.5449 49.9843 29.5449 47.6008C29.5449 45.2173 31.4771 43.2852 33.8606 43.2852H49.5994C51.9827 43.2852 53.915 45.2173 53.915 47.6008C53.915 49.9843 51.9827 51.9165 49.5994 51.9165Z" fill="#365E7D"/>
<path d="M49.6 51.9169C47.2166 51.9169 45.2843 49.9847 45.2843 47.6012V36.5818C45.2843 34.1985 47.2165 32.2661 49.6 32.2661C51.9833 32.2661 53.9156 34.1983 53.9156 36.5818V47.6012C53.9154 49.9847 51.9833 51.9169 49.6 51.9169Z" fill="#2B4D66"/>
<path d="M49.5982 22.9538C48.7774 22.9538 48.1124 22.2886 48.1124 21.468V14.5981C48.1124 13.7775 48.7776 13.1123 49.5982 13.1123C50.4188 13.1123 51.084 13.7775 51.084 14.5981V21.4679C51.084 22.2885 50.419 22.9538 49.5982 22.9538Z" fill="#365E7D"/>
<path d="M49.5982 82.0901C48.7774 82.0901 48.1124 81.4249 48.1124 80.6043V73.7346C48.1124 72.914 48.7776 72.2488 49.5982 72.2488C50.4188 72.2488 51.084 72.914 51.084 73.7346V80.6043C51.084 81.4249 50.419 82.0901 49.5982 82.0901Z" fill="#365E7D"/>
<path d="M82.6023 49.0873H75.7325C74.9117 49.0873 74.2467 48.4221 74.2467 47.6015C74.2467 46.7809 74.9119 46.1157 75.7325 46.1157H82.6023C83.423 46.1157 84.0881 46.7809 84.0881 47.6015C84.0881 48.4221 83.4229 49.0873 82.6023 49.0873Z" fill="#365E7D"/>
<path d="M23.4655 49.0873H16.5955C15.7748 49.0873 15.1097 48.4221 15.1097 47.6015C15.1097 46.7809 15.7749 46.1157 16.5955 46.1157H23.4653C24.2861 46.1157 24.9511 46.7809 24.9511 47.6015C24.9511 48.4221 24.2861 49.0873 23.4655 49.0873Z" fill="#365E7D"/>
<path d="M74.6713 34.6132C74.1578 34.6132 73.6582 34.3466 73.3832 33.8699C72.9728 33.1591 73.2164 32.2505 73.927 31.8403L77.4388 29.8129C78.1492 29.4025 79.0585 29.646 79.4685 30.3568C79.8789 31.0675 79.6352 31.9762 78.9246 32.3864L75.4128 34.4138C75.179 34.549 74.9234 34.6132 74.6713 34.6132Z" fill="#365E7D"/>
<path d="M21.0193 65.589C20.5058 65.589 20.0062 65.3224 19.7312 64.8457C19.3208 64.1349 19.5645 63.2262 20.2751 62.816L23.7869 60.7885C24.4973 60.3781 25.4065 60.6216 25.8165 61.3323C26.2269 62.0431 25.9832 62.9518 25.2727 63.362L21.7609 65.3895C21.527 65.5247 21.2714 65.589 21.0193 65.589Z" fill="#365E7D"/>
<path d="M64.0726 24.0174C63.8205 24.0174 63.5651 23.9531 63.3311 23.8179C62.6205 23.4077 62.3768 22.4989 62.7872 21.7883L64.8146 18.2767C65.2246 17.5659 66.1331 17.3224 66.8442 17.7328C67.5548 18.143 67.7985 19.0519 67.3881 19.7625L65.3607 23.2741C65.0855 23.7506 64.5861 24.0174 64.0726 24.0174Z" fill="#365E7D"/>
<path d="M33.0964 77.6689C32.8443 77.6689 32.5889 77.6047 32.3549 77.4695C31.6443 77.0593 31.4006 76.1504 31.811 75.4398L33.8384 71.928C34.2486 71.2173 35.1569 70.9738 35.868 71.3842C36.5786 71.7944 36.8223 72.7033 36.4119 73.4138L34.3845 76.9257C34.1095 77.4024 33.6099 77.6689 33.0964 77.6689Z" fill="#365E7D"/>
<path d="M35.1266 24.0174C34.6131 24.0174 34.1135 23.7508 33.8385 23.2741L31.8112 19.7625C31.4008 19.0517 31.6444 18.143 32.355 17.7328C33.0652 17.3224 33.9747 17.5659 34.3847 18.2767L36.412 21.7883C36.8224 22.4991 36.5787 23.4077 35.8682 23.8179C35.6343 23.9531 35.3787 24.0174 35.1266 24.0174Z" fill="#365E7D"/>
<path d="M66.1027 77.6689C65.5892 77.6689 65.0896 77.4024 64.8146 76.9257L62.7872 73.4138C62.3768 72.7031 62.6205 71.7944 63.3311 71.3842C64.0413 70.9738 64.9507 71.2173 65.3607 71.928L67.3881 75.4398C67.7985 76.1506 67.5548 77.0593 66.8442 77.4695C66.6104 77.6047 66.3548 77.6689 66.1027 77.6689Z" fill="#365E7D"/>
<path d="M24.5282 34.6132C24.276 34.6132 24.0207 34.549 23.7866 34.4138L20.2748 32.3865C19.5642 31.9763 19.3206 31.0674 19.731 30.3568C20.1412 29.6462 21.0496 29.4024 21.7606 29.8129L25.2724 31.8403C25.983 32.2505 26.2267 33.1594 25.8163 33.87C25.5411 34.3467 25.0416 34.6132 24.5282 34.6132Z" fill="#365E7D"/>
<path d="M78.1804 65.5891C77.9283 65.5891 77.6729 65.5248 77.4388 65.3896L73.927 63.3621C73.2164 62.9519 72.9728 62.043 73.3832 61.3324C73.7934 60.6216 74.7019 60.378 75.4128 60.7886L78.9246 62.8161C79.6352 63.2263 79.8789 64.1352 79.4685 64.8458C79.1933 65.3225 78.6939 65.5891 78.1804 65.5891Z" fill="#365E7D"/>
<path d="M49.599 82.9636C30.1003 82.9636 14.2369 67.1002 14.2369 47.6015C14.2369 28.1028 30.1003 12.2393 49.599 12.2393C69.0977 12.2393 84.9611 28.1027 84.9611 47.6013C84.9611 67.1 69.0977 82.9636 49.599 82.9636ZM49.599 15.211C31.739 15.211 17.2085 29.7413 17.2085 47.6015C17.2085 65.4617 31.739 79.9918 49.599 79.9918C67.459 79.9918 81.9895 65.4615 81.9895 47.6013C81.9895 29.7411 67.459 15.211 49.599 15.211Z" fill="#CB5769"/>
</g>
<defs>
<clipPath id="clip0_1137_12211">
<rect width="100" height="100" fill="white"/>
</clipPath>
</defs>
</svg>
