<svg viewBox="0 0 20 20" fill="none" xmlns="http://www.w3.org/2000/svg">
<path d="M19.5133 11.3908C19.3087 11.3396 19.1041 11.3908 18.9251 11.5186C18.2602 12.0813 17.4929 12.5416 16.649 12.8485C15.8562 13.1554 14.9866 13.3089 14.066 13.3089C11.9944 13.3089 10.1019 12.4649 8.74647 11.1095C7.39102 9.75401 6.54706 7.8615 6.54706 5.78997C6.54706 4.92044 6.70051 4.07648 6.95625 3.30924C7.23757 2.49086 7.64677 1.7492 8.18383 1.10984C8.414 0.828521 8.36285 0.41933 8.08153 0.18916C7.90251 0.0612875 7.69791 0.0101385 7.49332 0.0612875C5.31949 0.6495 3.42698 1.9538 2.07153 3.69286C0.767234 5.40635 0 7.52903 0 9.83073C0 12.6184 1.12528 15.1502 2.96664 16.9916C4.808 18.8329 7.3143 19.9582 10.1275 19.9582C12.4803 19.9582 14.6542 19.1398 16.3932 17.7844C18.1579 16.4034 19.4366 14.4341 19.9737 12.1836C20.076 11.8255 19.8714 11.4675 19.5133 11.3908Z" fill="currentColor"/>
</svg>
