<svg width="20" height="16" viewBox="0 0 20 16" fill="none" xmlns="http://www.w3.org/2000/svg">
<path d="M9.99989 15.8C9.90277 15.8 9.80568 15.7771 9.71868 15.7311C9.62418 15.6812 7.37902 14.4879 5.10166 12.69C3.75189 11.6244 2.67444 10.5675 1.89932 9.54872C0.896273 8.2304 0.391862 6.96233 0.399999 5.77969C0.409524 4.40356 0.947985 3.1094 1.91631 2.13558C2.90098 1.14534 4.21505 0.600037 5.61653 0.600037C7.41266 0.600037 9.05482 1.521 9.99993 2.97993C10.945 1.52104 12.5872 0.600037 14.3833 0.600037C15.7074 0.600037 16.9706 1.09207 17.9405 1.9855C19.0049 2.96596 19.6097 4.35128 19.5998 5.78621C19.5916 6.96679 19.0777 8.23294 18.0725 9.54944C17.295 10.5677 16.219 11.6241 14.8745 12.6894C12.6055 14.4872 10.3765 15.6804 10.2827 15.7303C10.1953 15.7768 10.0975 15.8 9.99989 15.8Z" fill="url(#paint0_linear_2014_29094)"/>
<defs>
<linearGradient id="paint0_linear_2014_29094" x1="0.399903" y1="4.40003" x2="20.2238" y2="5.99716" gradientUnits="userSpaceOnUse">
<stop stop-color="#FF9737"/>
<stop offset="1" stop-color="#CE6403"/>
</linearGradient>
</defs>
</svg>
