<svg width="100" height="100" viewBox="0 0 100 100" fill="none" xmlns="http://www.w3.org/2000/svg">
<path d="M49.9999 92.6154C49.4941 92.6154 48.9884 92.4875 48.5353 92.2315C48.0431 91.9537 36.3496 85.3111 24.4883 75.3024C17.4583 69.3705 11.8466 63.487 7.80946 57.8156C2.58526 50.4767 -0.041878 43.4176 0.000504702 36.8341C0.0501139 29.1735 2.8546 21.9692 7.89794 16.548C13.0264 11.0356 19.8706 8 27.1699 8C36.5248 8 45.0777 13.1268 50.0001 21.2484C54.9226 13.127 63.4755 8 72.8303 8C79.7264 8 86.3059 10.739 91.3574 15.7126C96.9011 21.1706 100.051 28.8825 99.9994 36.8704C99.9568 43.4424 97.2804 50.4908 92.0447 57.8196C87.9951 63.4881 82.3912 69.369 75.3887 75.2992C63.5708 85.3069 51.9613 91.9493 51.4728 92.2271C51.0175 92.4858 50.5085 92.6154 49.9999 92.6154Z" fill="white"/>
</svg>
