<svg width="100" height="100" viewBox="0 0 100 100" fill="none" xmlns="http://www.w3.org/2000/svg">
<g clip-path="url(#clip0_1230_20269)">
<path d="M8.33341 0C6.04175 0 4.16675 1.875 4.16675 4.16667V95.8333C4.16675 98.125 6.04175 100 8.33341 100C10.6251 100 12.5001 98.125 12.5001 95.8333V53.9583C17.6667 50.7083 29.2084 45.5417 45.9584 50.625C72.8751 58.7917 94.4167 27.0417 95.2917 25.7083C96.0417 24.625 96.0001 23.2083 95.2501 22.125C94.5001 21.0833 93.1251 20.5833 91.8751 20.9583C91.6667 21 70.1667 26.6667 50.7501 13.0833C37.1251 3.54167 21.0001 3.5 12.5001 4.375V4.16667C12.5001 1.875 10.6251 0 8.33341 0Z" fill="white"/>
</g>
<defs>
<clipPath id="clip0_1230_20269">
<rect width="100" height="100" fill="white"/>
</clipPath>
</defs>
</svg>
