<svg width="100" height="100" viewBox="0 0 100 100" fill="none" xmlns="http://www.w3.org/2000/svg">
<path d="M93.75 50C93.75 61.6032 89.1406 72.7312 80.9359 80.9359C72.7312 89.1407 61.6032 93.75 50 93.75C38.3968 93.75 27.2688 89.1407 19.0641 80.9359C10.8594 72.7312 6.25 61.6032 6.25 50C6.25 49.1712 6.57924 48.3764 7.16529 47.7903C7.75134 47.2043 8.5462 46.875 9.375 46.875C10.2038 46.875 10.9987 47.2043 11.5847 47.7903C12.1708 48.3764 12.5 49.1712 12.5 50C12.4875 58.3689 15.2706 66.5023 20.4077 73.1091C25.5447 79.7159 32.7413 84.4176 40.8552 86.4679C48.9691 88.5182 57.5354 87.7997 65.1944 84.4263C72.8533 81.053 79.1661 75.2181 83.1308 67.8479C87.0954 60.4776 88.4848 51.9943 87.0783 43.7444C85.6718 35.4945 81.55 27.9507 75.3672 22.3105C69.1845 16.6702 61.2949 13.2567 52.9509 12.6117C44.6068 11.9666 36.2864 14.127 29.3102 18.75H31.25C32.0788 18.75 32.8737 19.0793 33.4597 19.6653C34.0458 20.2514 34.375 21.0462 34.375 21.875C34.375 22.7038 34.0458 23.4987 33.4597 24.0847C32.8737 24.6708 32.0788 25 31.25 25H21.875C21.4646 25.0003 21.0581 24.9196 20.6788 24.7626C20.2996 24.6057 19.955 24.3755 19.6648 24.0853C19.3745 23.795 19.1444 23.4504 18.9874 23.0712C18.8304 22.6919 18.7498 22.2855 18.75 21.875V12.5C18.75 11.6712 19.0792 10.8764 19.6653 10.2903C20.2513 9.70426 21.0462 9.37502 21.875 9.37502C22.7038 9.37502 23.4987 9.70426 24.0847 10.2903C24.6708 10.8764 25 11.6712 25 12.5V14.106C31.5587 9.5347 39.2448 6.84836 47.2231 6.33891C55.2015 5.82946 63.1668 7.5164 70.2537 11.2164C77.3405 14.9164 83.2778 20.4879 87.4202 27.3256C91.5627 34.1632 93.7519 42.0054 93.75 50ZM78.125 50C78.125 55.5626 76.4755 61.0003 73.3851 65.6254C70.2947 70.2506 65.9021 73.8554 60.763 75.9841C55.6238 78.1128 49.9688 78.6698 44.5131 77.5846C39.0574 76.4994 34.046 73.8207 30.1126 69.8874C26.1793 65.954 23.5006 60.9427 22.4154 55.4869C21.3302 50.0312 21.8872 44.3762 24.0159 39.237C26.1446 34.0979 29.7495 29.7054 34.3746 26.6149C38.9997 23.5245 44.4374 21.875 50 21.875C57.4567 21.8832 64.6057 24.8489 69.8784 30.1216C75.1511 35.3943 78.1169 42.5433 78.125 50ZM61.1084 53.65L53.125 48.3276V34.375C53.125 33.5462 52.7958 32.7514 52.2097 32.1653C51.6237 31.5793 50.8288 31.25 50 31.25C49.1712 31.25 48.3763 31.5793 47.7903 32.1653C47.2042 32.7514 46.875 33.5462 46.875 34.375V50C46.8751 50.5144 47.0022 51.0209 47.2449 51.4744C47.4877 51.928 47.8386 52.3146 48.2666 52.6L57.6416 58.85C58.3312 59.3001 59.1707 59.4599 59.9774 59.2944C60.7841 59.129 61.493 58.6518 61.9498 57.9666C62.4066 57.2814 62.5745 56.4436 62.4169 55.6353C62.2594 54.827 61.7891 54.1135 61.1084 53.65Z" fill="white"/>
</svg>
