<svg width="100" height="100" viewBox="0 0 100 100" fill="none" xmlns="http://www.w3.org/2000/svg">
<g clip-path="url(#clip0_1137_12815)">
<rect width="100" height="100" rx="11" fill="white"/>
<path d="M50 38.0938C47.6454 38.0946 45.3438 38.7937 43.3865 40.1025C41.4291 41.4113 39.9037 43.2711 39.0032 45.4468C38.1028 47.6224 37.8676 50.0162 38.3275 52.3255C38.7874 54.6348 39.9218 56.7559 41.5871 58.4206C43.2523 60.0852 45.3738 61.2188 47.6833 61.6778C49.9928 62.1368 52.3865 61.9008 54.5618 60.9995C56.7371 60.0982 58.5964 58.5722 59.9045 56.6143C61.2125 54.6564 61.9107 52.3546 61.9107 50C61.9083 46.8422 60.6526 43.8145 58.4193 41.582C56.186 39.3496 53.1578 38.0949 50 38.0938ZM77.8371 28.942C77.2309 27.4059 76.3156 26.0108 75.148 24.8431C73.9803 23.6754 72.5852 22.7601 71.0491 22.154C66.3616 20.3036 55.2009 20.7188 50 20.7188C44.7991 20.7188 33.6496 20.2879 28.9487 22.154C27.4126 22.7601 26.0175 23.6754 24.8498 24.8431C23.6821 26.0108 22.7668 27.4059 22.1607 28.942C20.3125 33.6295 20.7254 44.8013 20.7254 49.9978C20.7254 55.1942 20.3125 66.3527 22.1696 71.0558C22.7758 72.5919 23.691 73.987 24.8587 75.1547C26.0264 76.3223 27.4215 77.2376 28.9576 77.8438C33.6451 79.6942 44.8058 79.279 50.0089 79.279C55.2121 79.279 66.3571 79.7098 71.058 77.8438C72.5941 77.2376 73.9892 76.3223 75.1569 75.1547C76.3246 73.987 77.2399 72.5919 77.846 71.0558C79.7098 66.3683 79.2812 55.1964 79.2812 50C79.2812 44.8036 79.7098 33.6473 77.846 28.9442L77.8371 28.942ZM50 68.3036C46.3799 68.3036 42.8411 67.2301 39.8311 65.2189C36.8211 63.2076 34.4751 60.349 33.0897 57.0045C31.7044 53.6599 31.3419 49.9797 32.0481 46.4291C32.7544 42.8786 34.4976 39.6172 37.0574 37.0574C39.6172 34.4976 42.8786 32.7544 46.4291 32.0481C49.9797 31.3419 53.6599 31.7044 57.0045 33.0897C60.349 34.4751 63.2076 36.8211 65.2189 39.8311C67.2301 42.8411 68.3036 46.3799 68.3036 50C68.3065 52.4045 67.8351 54.7859 66.9163 57.0079C65.9975 59.23 64.6494 61.2489 62.9491 62.9491C61.2489 64.6494 59.23 65.9975 57.0079 66.9163C54.7859 67.8351 52.4045 68.3065 50 68.3036ZM69.058 35.2009C68.213 35.2013 67.3867 34.9511 66.6839 34.482C65.981 34.0128 65.433 33.3457 65.1093 32.5651C64.7856 31.7844 64.7007 30.9253 64.8653 30.0965C65.0299 29.2676 65.4366 28.5061 66.034 27.9084C66.6314 27.3107 67.3927 26.9035 68.2215 26.7385C69.0503 26.5735 69.9094 26.658 70.6902 26.9812C71.471 27.3045 72.1384 27.8521 72.608 28.5548C73.0775 29.2574 73.3281 30.0835 73.3281 30.9286C73.3305 31.4898 73.222 32.0459 73.0089 32.5651C72.7959 33.0842 72.4824 33.5562 72.0865 33.954C71.6906 34.3518 71.2201 34.6674 70.7019 34.8829C70.1838 35.0984 69.6282 35.2095 69.067 35.2098L69.058 35.2009ZM89.2857 0H10.7143C7.87268 0 5.14746 1.12882 3.13814 3.13814C1.12882 5.14746 0 7.87268 0 10.7143L0 89.2857C0 92.1273 1.12882 94.8525 3.13814 96.8619C5.14746 98.8712 7.87268 100 10.7143 100H89.2857C92.1273 100 94.8525 98.8712 96.8619 96.8619C98.8712 94.8525 100 92.1273 100 89.2857V10.7143C100 7.87268 98.8712 5.14746 96.8619 3.13814C94.8525 1.12882 92.1273 0 89.2857 0ZM85.4643 64.7321C85.1763 70.4531 83.8705 75.5223 79.6942 79.6875C75.5179 83.8527 70.4531 85.1853 64.7388 85.4576C58.8438 85.7902 41.1696 85.7902 35.2746 85.4576C29.5536 85.1696 24.5022 83.8616 20.3192 79.6875C16.1362 75.5134 14.8214 70.442 14.5491 64.7321C14.2165 58.8348 14.2165 41.1585 14.5491 35.2679C14.8371 29.5469 16.1272 24.4777 20.3192 20.3125C24.5112 16.1473 29.5759 14.8304 35.2746 14.558C41.1696 14.2254 58.8438 14.2254 64.7388 14.558C70.4598 14.846 75.5268 16.154 79.6942 20.3281C83.8616 24.5022 85.192 29.5737 85.4643 35.2946C85.7969 41.1696 85.7969 58.8304 85.4643 64.7321Z" fill="url(#paint0_linear_1137_12815)"/>
</g>
<defs>
<linearGradient id="paint0_linear_1137_12815" x1="50" y1="-1.49012e-06" x2="-2.23517e-06" y2="100" gradientUnits="userSpaceOnUse">
<stop stop-color="#4A67D4"/>
<stop offset="0.244792" stop-color="#A436B3"/>
<stop offset="0.473958" stop-color="#D82E7C"/>
<stop offset="0.708333" stop-color="#FA812A"/>
<stop offset="1" stop-color="#FEC35B"/>
</linearGradient>
<clipPath id="clip0_1137_12815">
<rect width="100" height="100" fill="white"/>
</clipPath>
</defs>
</svg>
