<svg width="100" height="100" viewBox="0 0 100 100" fill="none" xmlns="http://www.w3.org/2000/svg">
<g clip-path="url(#clip0_1137_12887)">
<path d="M49.9979 0C22.3873 0 0 22.3873 0 49.9979C0 77.6085 22.3873 100 49.9979 100C77.6085 100 100 77.6085 100 49.9979C100 22.3873 77.6085 0 49.9979 0ZM60.4063 77.4899C57.8328 78.5058 55.7841 79.2762 54.2476 79.8095C52.7153 80.3429 50.9333 80.6095 48.9058 80.6095C45.7905 80.6095 43.3651 79.8476 41.6381 78.328C39.9111 76.8085 39.0519 74.8825 39.0519 72.5418C39.0519 71.6318 39.1153 70.7005 39.2423 69.7524C39.3735 68.8042 39.581 67.7376 39.8646 66.5397L43.0857 55.1619C43.3693 54.0698 43.6148 53.0328 43.8095 52.0677C44.0042 51.0942 44.0974 50.2011 44.0974 49.3884C44.0974 47.9407 43.7968 46.9249 43.2 46.3534C42.5947 45.782 41.4561 45.5026 39.7587 45.5026C38.9291 45.5026 38.0741 45.6254 37.1979 45.8836C36.3302 46.1503 35.5767 46.3915 34.9587 46.6286L35.8095 43.1238C37.9175 42.2645 39.9365 41.528 41.8624 40.9185C43.7884 40.3005 45.6085 39.9958 47.3228 39.9958C50.4169 39.9958 52.8042 40.7492 54.4847 42.2392C56.1566 43.7333 56.9989 45.6762 56.9989 48.0635C56.9989 48.5587 56.9397 49.4307 56.8254 50.6751C56.7111 51.9238 56.4952 53.0624 56.182 54.1079L52.9778 65.4519C52.7153 66.3619 52.4825 67.4032 52.2709 68.5672C52.0635 69.7312 51.9619 70.6201 51.9619 71.2169C51.9619 72.7238 52.2963 73.7524 52.9735 74.2984C53.6423 74.8444 54.8148 75.1196 56.4741 75.1196C57.2571 75.1196 58.1333 74.9799 59.1238 74.709C60.1058 74.4381 60.8169 74.1968 61.2656 73.9894L60.4063 77.4899ZM59.8392 31.4455C58.345 32.8339 56.546 33.528 54.4423 33.528C52.3429 33.528 50.5312 32.8339 49.0243 31.4455C47.5259 30.0571 46.7683 28.3683 46.7683 26.3958C46.7683 24.4275 47.5302 22.7344 49.0243 21.3333C50.5312 19.928 52.3429 19.2296 54.4423 19.2296C56.546 19.2296 58.3492 19.928 59.8392 21.3333C61.3333 22.7344 62.0825 24.4275 62.0825 26.3958C62.0825 28.3725 61.3333 30.0571 59.8392 31.4455Z" fill="white"/>
</g>
<defs>
<clipPath id="clip0_1137_12887">
<rect width="100" height="100" fill="white"/>
</clipPath>
</defs>
</svg>
