<svg viewBox="0 0 20 20" fill="currentColor" xmlns="http://www.w3.org/2000/svg">
<path d="M3.91824 6.57082C4.54465 5.46421 5.46418 4.54468 6.57078 3.91828L3.54297 2.7948C3.32965 2.71562 3.0898 2.76808 2.92895 2.92894C2.76805 3.0898 2.7157 3.32964 2.7948 3.54296L3.91824 6.57082Z" fill="currentColor"/>
<path d="M3.01641 10C3.01641 9.3509 3.10574 8.72227 3.27223 8.12555L0.339336 9.47098C0.132539 9.56582 0 9.7725 0 10C0 10.2275 0.132539 10.4342 0.339336 10.529L3.27227 11.8745C3.10578 11.2777 3.01641 10.6491 3.01641 10Z" fill="currentColor"/>
<path d="M10 3.01641C10.6491 3.01641 11.2777 3.10574 11.8745 3.27223L10.529 0.339336C10.4342 0.132539 10.2275 0 10 0C9.7725 0 9.56582 0.132539 9.47098 0.339336L8.12555 3.27227C8.72227 3.10574 9.35086 3.01641 10 3.01641Z" fill="currentColor"/>
<path d="M16.0817 6.57083L17.2052 3.54298C17.2843 3.3297 17.2319 3.08982 17.071 2.92896C16.9101 2.76806 16.6702 2.71575 16.457 2.79482L13.4292 3.91825C14.5358 4.5447 15.4553 5.46423 16.0817 6.57083Z" fill="currentColor"/>
<path d="M10 16.9836C9.35086 16.9836 8.72227 16.8942 8.12555 16.7278L9.47098 19.6607C9.56582 19.8674 9.7725 20 10 20C10.2275 20 10.4342 19.8674 10.529 19.6607L11.8745 16.7277C11.2777 16.8942 10.6491 16.9836 10 16.9836Z" fill="currentColor"/>
<path d="M3.91824 13.4292L2.7948 16.4571C2.7157 16.6703 2.76805 16.9102 2.92895 17.0711C3.04008 17.1822 3.18891 17.2415 3.34062 17.2415C3.40852 17.2415 3.47703 17.2296 3.54297 17.2052L6.57082 16.0818C5.46422 15.4553 4.54469 14.5358 3.91824 13.4292Z" fill="currentColor"/>
<path d="M19.6607 9.47096L16.7277 8.12549C16.8942 8.72225 16.9835 9.35084 16.9835 9.99994C16.9835 10.649 16.8942 11.2777 16.7277 11.8744L19.6607 10.529C19.8674 10.4342 20 10.2275 20 9.99998C20 9.77248 19.8674 9.5658 19.6607 9.47096Z" fill="currentColor"/>
<path d="M16.0818 13.4292C15.4554 14.5358 14.5358 15.4553 13.4292 16.0817L16.4571 17.2052C16.5231 17.2297 16.5915 17.2415 16.6594 17.2415C16.8111 17.2415 16.96 17.1822 17.0711 17.071C17.232 16.9102 17.2843 16.6703 17.2052 16.457L16.0818 13.4292Z" fill="currentColor"/>
<path d="M10 15.8195C6.79111 15.8195 4.18048 13.2089 4.18048 10C4.18048 6.79111 6.79111 4.18048 10 4.18048C13.2089 4.18048 15.8195 6.79111 15.8195 10C15.8195 13.2089 13.2089 15.8195 10 15.8195Z" fill="currentColor"/>
</svg>
