<svg width="100" height="100" viewBox="0 0 100 100" fill="none" xmlns="http://www.w3.org/2000/svg">
<g clip-path="url(#clip0_1137_12829)">
<rect width="100" height="100" rx="18" fill="white"/>
<path d="M60.7366 38.4375V54.308C60.7366 54.7098 60.4241 55.0223 60.0223 55.0223H57.4777C57.2321 55.0223 57.0089 54.8884 56.8973 54.7321L49.6205 44.9107V54.3304C49.6205 54.7321 49.308 55.0446 48.9063 55.0446H46.3616C45.9598 55.0446 45.6473 54.7321 45.6473 54.3304V38.4598C45.6473 38.058 45.9598 37.7455 46.3616 37.7455H48.8839C49.1071 37.7455 49.3527 37.8572 49.4643 38.058L56.7411 47.8795V38.4598C56.7411 38.058 57.0536 37.7455 57.4553 37.7455H60C60.4018 37.7232 60.7366 38.058 60.7366 38.4375ZM42.433 37.7232H39.8884C39.4866 37.7232 39.1741 38.0357 39.1741 38.4375V54.308C39.1741 54.7098 39.4866 55.0223 39.8884 55.0223H42.433C42.8348 55.0223 43.1473 54.7098 43.1473 54.308V38.4375C43.1473 38.058 42.8348 37.7232 42.433 37.7232ZM36.2947 51.0268H29.3527V38.4375C29.3527 38.0357 29.0402 37.7232 28.6384 37.7232H26.0938C25.692 37.7232 25.3795 38.0357 25.3795 38.4375V54.308C25.3795 54.5089 25.4464 54.6652 25.5804 54.7991C25.7143 54.9107 25.8706 55 26.0715 55H36.2723C36.6741 55 36.9866 54.6875 36.9866 54.2857V51.7411C36.9866 51.3616 36.6741 51.0268 36.2947 51.0268ZM74.1294 37.7232H63.9286C63.5491 37.7232 63.2143 38.0357 63.2143 38.4375V54.308C63.2143 54.6875 63.5268 55.0223 63.9286 55.0223H74.1294C74.5312 55.0223 74.8437 54.7098 74.8437 54.308V51.7634C74.8437 51.3616 74.5312 51.0491 74.1294 51.0491H67.1875V48.3705H74.1294C74.5312 48.3705 74.8437 48.058 74.8437 47.6563V45.0893C74.8437 44.6875 74.5312 44.375 74.1294 44.375H67.1875V41.6964H74.1294C74.5312 41.6964 74.8437 41.3839 74.8437 40.9822V38.4375C74.8214 38.058 74.5089 37.7232 74.1294 37.7232ZM100 18.2366V81.9196C99.9776 91.9196 91.7857 100.022 81.7634 100H18.0804C8.0804 99.9776 -0.0222754 91.7634 4.60081e-05 81.7634V18.0804C0.0223674 8.0804 8.23664 -0.0222754 18.2366 4.60081e-05H81.9196C91.9196 0.0223674 100.022 8.21432 100 18.2366ZM86.25 45.6027C86.25 29.3081 69.9107 16.0491 49.8438 16.0491C29.7768 16.0491 13.4375 29.3081 13.4375 45.6027C13.4375 60.2009 26.384 72.433 43.8839 74.7544C48.1473 75.6696 47.6563 77.2321 46.6964 82.9687C46.5402 83.8839 45.9598 86.5625 49.8438 84.933C53.7277 83.3035 70.8036 72.5893 78.4598 63.7946C83.7276 57.9911 86.25 52.1205 86.25 45.6027Z" fill="#06C755"/>
</g>
<defs>
<clipPath id="clip0_1137_12829">
<rect width="100" height="100" fill="white"/>
</clipPath>
</defs>
</svg>
