<svg width="20" height="18" viewBox="0 0 20 18" fill="none" xmlns="http://www.w3.org/2000/svg">
<path d="M8.16331 15.9378C8.13775 15.8698 8.12895 15.812 8.13762 15.7652C8.14624 15.7188 8.11653 15.6803 8.0484 15.6506C7.98027 15.6209 7.94627 15.5974 7.94627 15.5806C7.94627 15.5636 7.89744 15.5508 7.79956 15.5424C7.70172 15.5339 7.65289 15.5295 7.65289 15.5295H7.48714H7.34686H3.67339C3.11218 15.5295 2.63169 15.3299 2.23198 14.9299C1.83236 14.5303 1.63257 14.0499 1.63257 13.4888V4.50915C1.63257 3.94793 1.83232 3.46763 2.23198 3.06796C2.63169 2.66825 3.11218 2.46833 3.67339 2.46833H7.75497C7.86555 2.46833 7.95248 2.4409 8.01641 2.3855C8.08008 2.33024 8.12252 2.24728 8.14387 2.13675C8.16514 2.02622 8.17796 1.92642 8.18225 1.83711C8.18645 1.7479 8.18439 1.63513 8.17582 1.4991C8.16737 1.36311 8.16313 1.27809 8.16313 1.24391C8.16313 1.13339 8.1227 1.03791 8.04197 0.956963C7.96115 0.876369 7.86554 0.835938 7.75502 0.835938H3.67339C2.66158 0.835938 1.79631 1.19522 1.0777 1.91373C0.359279 2.63224 0 3.49738 0 4.50928V13.4888C0 14.5006 0.359279 15.3659 1.0777 16.0842C1.79631 16.803 2.66158 17.1623 3.67339 17.1623H7.75515C7.86572 17.1623 7.95271 17.1345 8.01659 17.0795C8.08025 17.0241 8.1227 16.9413 8.14405 16.8306C8.16532 16.7202 8.17814 16.6199 8.18243 16.531C8.18663 16.4417 8.18457 16.3291 8.17599 16.1931C8.16746 16.0569 8.16331 15.972 8.16331 15.9378Z" fill="white"/>
<path d="M19.7582 8.42344L12.8195 1.48451C12.658 1.32314 12.4666 1.24219 12.2455 1.24219C12.0244 1.24219 11.833 1.32314 11.6714 1.48451C11.5098 1.6461 11.4291 1.83762 11.4291 2.05859V5.73206H5.71483C5.4936 5.73206 5.30235 5.81301 5.14076 5.97438C4.97917 6.13597 4.89844 6.32736 4.89844 6.54846V11.4465C4.89844 11.6675 4.97917 11.8589 5.14076 12.0204C5.30253 12.1817 5.49374 12.2629 5.71483 12.2629H11.4291V15.9363C11.4291 16.1572 11.5099 16.3488 11.6714 16.5103C11.833 16.6719 12.0244 16.7528 12.2456 16.7528C12.4666 16.7528 12.658 16.6719 12.8195 16.5103L19.7582 9.57164C19.9198 9.40992 20.0005 9.21879 20.0005 8.99765C20.0005 8.7766 19.9198 8.58503 19.7582 8.42344Z" fill="white"/>
</svg>
