<svg width="100" height="100" viewBox="0 0 100 100" fill="none" xmlns="http://www.w3.org/2000/svg">
<g clip-path="url(#clip0_1137_12721)">
<path d="M39.9263 93.0217L32.0437 91.4059L27.4826 96.1299L11.9347 83.8584L22.3041 76.7818L33.3298 64.716C35.1775 62.6937 38.4439 62.9854 39.9038 65.3039L52.9664 80.2848C54.9405 82.5491 54.382 86.049 51.8005 87.5864L44.1049 92.1692C42.7614 92.9813 41.4823 93.0504 39.9263 93.0217Z" fill="#FFE7CF"/>
<path d="M52.9665 80.2845L49.7792 76.6287L36.487 84.55C35.1435 85.3622 33.8644 85.4312 32.3076 85.4025L25.4039 84.6594L19.4404 89.7813L27.4836 96.1295L32.0438 91.4048L39.9264 93.0213C41.4824 93.0492 42.7623 92.981 44.1051 92.1688L51.8007 87.5861C54.3822 86.0486 54.9407 82.5487 52.9665 80.2845Z" fill="#EFD5BD"/>
<path d="M52.5822 80.6045C51.0432 78.2178 49.1684 79.4255 47.6294 77.0379C46.0905 74.6511 47.9653 73.4426 46.4263 71.0558C44.8866 68.6682 43.0125 69.8768 41.4735 67.4892C39.9338 65.1008 41.8086 63.8923 40.2689 61.5047C39.328 60.0457 37.6238 57.0329 36.5859 56.6187L28.2791 60.7228L42.7348 83.5219C44.145 85.7101 47.0624 86.3408 49.2506 84.9298L52.0167 83.1473C52.8615 82.602 53.136 81.4725 52.5946 80.6247C52.5907 80.6177 52.5869 80.6115 52.5822 80.6045Z" fill="#344A5D"/>
<path d="M28.6873 64.2516L22.1614 68.2782C20.9234 69.0423 19.2999 68.6576 18.5358 67.4195L14.8466 61.4405C14.0826 60.2025 14.4673 58.579 15.7053 57.815L22.2312 53.7883C22.9976 53.3159 24.0021 53.5533 24.4753 54.3197L29.2186 62.0076C29.6918 62.7739 29.4536 63.7785 28.6873 64.2516Z" fill="#344A5D"/>
<path d="M32.6914 42.8918L19.4457 51.0652C17.7019 52.1403 17.1613 54.4255 18.2364 56.1685L24.7685 66.7551C25.8443 68.4981 28.1287 69.0395 29.8725 67.9636L43.1182 59.7909L85.014 50.6711L59.6342 9.53784L32.6914 42.8918Z" fill="#FED066"/>
<path d="M79.0343 40.98L37.3541 50.4504C37.3541 50.4504 23.0038 59.3041 20.9521 60.5708L24.7685 66.7554C25.8437 68.4984 28.1288 69.0398 29.8718 67.9639L43.1183 59.7912L85.0141 50.6715L79.0343 40.98Z" fill="#F5B556"/>
<path d="M43.1181 59.7913L29.8716 67.964C28.1286 69.0398 25.8435 68.4984 24.7683 66.7554L18.2363 56.1688C17.1604 54.4258 17.7018 52.1406 19.4448 51.0655L32.6912 42.8921L43.1181 59.7913Z" fill="#FD715C"/>
<path d="M37.3541 50.4502C37.3541 50.4502 23.0038 59.3039 20.9521 60.5706L24.7685 66.7552C25.8437 68.4982 28.1288 69.0396 29.8718 67.9637L36.4947 63.8774L43.1183 59.7911L37.3541 50.4502Z" fill="#D83E3A"/>
<path d="M87.5273 53.5939L85.7191 54.7093C84.7821 55.2872 83.5534 54.9963 82.9755 54.0593L55.6914 9.84029C55.1127 8.90248 55.4036 7.67456 56.3414 7.0959L58.1496 5.98045C59.0866 5.40179 60.3153 5.69267 60.8932 6.63048L88.1773 50.8495C88.756 51.7865 88.4643 53.0152 87.5273 53.5939Z" fill="#FD715C"/>
<path d="M88.177 50.8497L83.6889 43.5745L78.4863 46.785L82.9752 54.0595C83.5531 54.9965 84.7818 55.2874 85.7189 54.7095L87.527 53.5941C88.464 53.0154 88.7557 51.7867 88.177 50.8497Z" fill="#D83E3A"/>
<path d="M48.4712 86.6239C49.4571 88.2381 51.5654 88.7477 53.1796 87.761L58.1712 84.7095C59.7846 83.7236 60.2935 81.6168 59.3076 80.0033C58.3217 78.3891 56.2133 77.8803 54.5999 78.8662L49.6075 81.9178C47.9949 82.9037 47.486 85.0104 48.4712 86.6239Z" fill="#FFE7CF"/>
<path d="M59.3074 80.0032C58.9033 79.3416 58.3091 78.8692 57.6397 78.6062C57.815 79.9101 57.2285 81.256 56.0332 81.9867L51.0409 85.0382C50.0883 85.62 48.9659 85.6774 48.0017 85.2989C48.063 85.755 48.2158 86.2064 48.471 86.6245C49.4569 88.2387 51.5652 88.7476 53.1794 87.7609L58.171 84.7093C59.7844 83.7234 60.2925 81.6167 59.3074 80.0032Z" fill="#EFD5BD"/>
<path d="M46.3334 79.8855C47.3341 81.5245 49.4742 82.0411 51.1124 81.0397L56.0156 78.0425C57.6531 77.0418 58.1697 74.9032 57.1698 73.265C56.1692 71.6267 54.029 71.1101 52.3908 72.1115L47.4869 75.1088C45.8494 76.1094 45.3328 78.248 46.3334 79.8855Z" fill="#FFE7CF"/>
<path d="M57.1698 73.2651C56.7711 72.6127 56.1909 72.1419 55.5339 71.8696C55.7007 73.1852 55.1057 74.5372 53.9011 75.2734L48.9971 78.2706C48.0112 78.8733 46.8454 78.923 45.8533 78.5126C45.913 78.985 46.0689 79.4528 46.3334 79.8856C47.3341 81.5246 49.4742 82.0413 51.1125 81.0398L56.0156 78.0426C57.6531 77.0419 58.1697 74.9034 57.1698 73.2651Z" fill="#EFD5BD"/>
<path d="M42.6784 73.9924C43.679 75.6307 45.8192 76.1481 47.4574 75.1467L52.3613 72.1486C53.9988 71.148 54.5146 69.0094 53.5148 67.3719C52.5141 65.7329 50.374 65.2163 48.7357 66.2177L43.8318 69.215C42.1944 70.2156 41.6777 72.3542 42.6784 73.9924Z" fill="#FFE7CF"/>
<path d="M53.5148 67.3724C53.1246 66.7332 52.5599 66.267 51.92 65.9924C52.0643 67.2917 51.4701 68.6181 50.281 69.345L45.3778 72.3422C44.3779 72.9535 43.1935 72.9961 42.1936 72.568C42.2479 73.0574 42.4038 73.5438 42.6776 73.9921C43.6791 75.6312 45.8184 76.1478 47.4574 75.1464L52.3614 72.1491C53.9988 71.1484 54.5147 69.0099 53.5148 67.3724Z" fill="#EFD5BD"/>
<path d="M39.2327 67.9483C40.2334 69.5865 42.3735 70.1031 44.0118 69.1017L48.9157 66.1045C50.5531 65.1038 51.0698 62.9652 50.0691 61.327C49.0685 59.6887 46.9283 59.1721 45.2901 60.1735L40.3862 63.1708C38.7487 64.1714 38.2329 66.31 39.2327 67.9483Z" fill="#FFE7CF"/>
<path d="M50.0691 61.3277C49.6091 60.5738 48.9063 60.061 48.1229 59.8206C48.4223 61.223 47.832 62.7209 46.5397 63.5113L41.6358 66.5086C40.7515 67.0492 39.7214 67.1438 38.803 66.8615C38.8829 67.2362 39.0225 67.6038 39.2327 67.949C40.2334 69.5873 42.3735 70.1039 44.0117 69.1025L48.9157 66.1052C50.5531 65.1046 51.0697 62.966 50.0691 61.3277Z" fill="#EFD5BD"/>
<path d="M46.5895 72.154L45.6804 72.7094C44.2493 73.5844 42.4 73.1647 41.5483 71.7732L40.0419 69.3096C39.3042 68.1041 37.6993 67.7458 36.4652 68.5114C35.2264 77.604 22.3042 76.7818 22.3042 76.7818L30.3117 64.7214C30.8399 63.8076 31.59 63.035 32.4929 62.475L37.0121 59.6724C39.2088 58.3103 42.0649 58.9463 43.3797 61.0919L47.639 68.0429C48.4923 69.4368 48.0222 71.2783 46.5895 72.154Z" fill="#FFE7CF"/>
<path d="M47.6382 68.0434L47.6032 67.986C47.3566 68.3824 47.0168 68.7307 46.5894 68.9921L45.6795 69.5483C44.2492 70.4225 42.3999 70.0036 41.5482 68.6112L40.0418 66.1484C39.3041 64.9422 37.6992 64.5846 36.4651 65.3495C35.9454 69.1628 33.6137 72.817 31.0112 75.3202C33.6439 74.1636 35.9733 72.1174 36.4651 68.5112C37.6992 67.7456 39.3041 68.1039 40.0418 69.3094L41.5482 71.773C42.3999 73.1645 44.2492 73.5842 45.6795 72.71L46.5894 72.1538C48.0221 71.2781 48.4922 69.4366 47.6382 68.0434Z" fill="#EFD5BD"/>
<path d="M27.7334 96.4263L14.9966 81.2911L19.1907 77.7617C19.3226 77.6508 19.5204 77.6678 19.6321 77.7997L31.9656 92.4564C32.0765 92.5882 32.0594 92.786 31.9276 92.8977L27.7334 96.4263Z" fill="#CDD6DF"/>
<path d="M31.9646 92.4559L25.4038 84.6587L20.97 88.3898L27.7332 96.4267L31.9266 92.8973C32.0592 92.7856 32.0763 92.5878 31.9646 92.4559Z" fill="#96A4AA"/>
<path d="M80.2775 25.4417C79.7694 25.4417 79.2737 25.1857 78.9883 24.7218C78.5508 24.0105 78.7726 23.0797 79.4839 22.6422L87.6768 17.6025C88.3881 17.165 89.3189 17.3869 89.7556 18.0982C90.1931 18.8087 89.9713 19.7396 89.2607 20.177L81.0679 25.2167C80.8205 25.3695 80.5474 25.4417 80.2775 25.4417Z" fill="#DBD9D1"/>
<path d="M99.1616 37.7813C99.1127 37.7813 99.0631 37.7789 99.0135 37.7743L87.0019 36.6069C86.1711 36.5262 85.563 35.7877 85.6437 34.9562C85.7243 34.1262 86.4636 33.5165 87.2943 33.5987L99.3059 34.7654C100.137 34.846 100.745 35.5853 100.664 36.416C100.588 37.1972 99.9303 37.7813 99.1616 37.7813Z" fill="#DBD9D1"/>
<path d="M73.4027 14.2701C73.2204 14.2701 73.0351 14.2368 72.8551 14.167C72.0771 13.8645 71.6923 12.9879 71.9949 12.2107L76.3697 0.963174C76.6723 0.185156 77.5488 -0.19881 78.326 0.102933C79.1041 0.405452 79.4896 1.28121 79.1871 2.05922L74.8122 13.306C74.5795 13.904 74.0078 14.2701 73.4027 14.2701Z" fill="#DBD9D1"/>
<path d="M28.6422 96.2851L14.8761 80.1368C14.7667 80.008 14.5774 79.9824 14.437 80.0778L-0.22431 91.6511C-0.71377 92.0374 -1 92.6277 -1 93.2522V97.9606C-1 99.0869 -0.0870125 99.9999 1.04007 99.9999H25.0236C25.6411 99.9999 26.226 99.7199 26.6138 99.2382L28.6283 96.7303C28.7469 96.6078 28.7524 96.4146 28.6422 96.2851Z" fill="#3C5666"/>
<path d="M28.6421 96.2851L22.1147 88.6274L12.5046 99.9998H25.0235C25.641 99.9998 26.2258 99.7198 26.6137 99.2381L28.6281 96.7303C28.7468 96.6077 28.7522 96.4146 28.6421 96.2851Z" fill="#194451"/>
</g>
<defs>
<clipPath id="clip0_1137_12721">
<rect width="100" height="100" fill="white"/>
</clipPath>
</defs>
</svg>
