<svg width="100" height="100" viewBox="0 0 100 100" fill="none" xmlns="http://www.w3.org/2000/svg">
<path d="M49.7501 100C56.6486 100 62.2443 94.4043 62.2443 87.5H37.256C37.256 94.4043 42.8517 100 49.7501 100ZM91.8185 70.7598C88.0451 66.7051 80.9845 60.6055 80.9845 40.625C80.9845 25.4492 70.3439 13.3008 55.9962 10.3203V6.25C55.9962 2.79883 53.1994 0 49.7501 0C46.3009 0 43.504 2.79883 43.504 6.25V10.3203C29.1564 13.3008 18.5158 25.4492 18.5158 40.625C18.5158 60.6055 11.4552 66.7051 7.68178 70.7598C6.5099 72.0195 5.99037 73.5254 6.00014 75C6.02162 78.2031 8.53529 81.25 12.2697 81.25H87.2306C90.965 81.25 93.4806 78.2031 93.5001 75C93.5099 73.5254 92.9904 72.0176 91.8185 70.7598Z" fill="white"/>
</svg>
