<svg width="100" height="100" viewBox="0 0 100 100" fill="none" xmlns="http://www.w3.org/2000/svg">
<g clip-path="url(#clip0_1137_12926)">
<g clip-path="url(#clip1_1137_12926)">
<g clip-path="url(#clip2_1137_12926)">
<path d="M50 20.1953C30.8939 20.1953 13.5676 30.6484 0.782449 47.627C-0.260816 49.0181 -0.260816 50.9614 0.782449 52.3524C13.5676 69.3515 30.8939 79.8046 50 79.8046C69.1061 79.8046 86.4324 69.3515 99.2176 52.3729C100.261 50.9818 100.261 49.0385 99.2176 47.6475C86.4324 30.6484 69.1061 20.1953 50 20.1953ZM51.3706 70.988C38.6877 71.7858 28.2142 61.3327 29.012 48.6294C29.6666 38.1558 38.1559 29.6665 48.6294 29.0119C61.3123 28.2141 71.7858 38.6672 70.988 51.3705C70.313 61.8236 61.8237 70.3129 51.3706 70.988ZM50.7364 61.2918C43.9041 61.7213 38.2582 56.0959 38.7082 49.2635C39.056 43.6176 43.6381 39.0559 49.284 38.6877C56.1164 38.2581 61.7623 43.8836 61.3123 50.7159C60.9441 56.3823 56.3619 60.944 50.7364 61.2918Z" fill="white"/>
</g>
</g>
</g>
<defs>
<clipPath id="clip0_1137_12926">
<rect width="100" height="100" fill="white"/>
</clipPath>
<clipPath id="clip1_1137_12926">
<rect width="100" height="100" fill="white"/>
</clipPath>
<clipPath id="clip2_1137_12926">
<rect width="100" height="100" fill="white"/>
</clipPath>
</defs>
</svg>
