<svg width="100" height="100" viewBox="0 0 100 100" fill="none" xmlns="http://www.w3.org/2000/svg">
<g clip-path="url(#clip0_1629_20314)">
<path d="M81.25 9.375H18.75C16.2636 9.375 13.879 10.3627 12.1209 12.1209C10.3627 13.879 9.375 16.2636 9.375 18.75V81.25C9.375 83.7364 10.3627 86.121 12.1209 87.8791C13.879 89.6373 16.2636 90.625 18.75 90.625H81.25C83.7364 90.625 86.121 89.6373 87.8791 87.8791C89.6373 86.121 90.625 83.7364 90.625 81.25V18.75C90.625 16.2636 89.6373 13.879 87.8791 12.1209C86.121 10.3627 83.7364 9.375 81.25 9.375ZM25 43.75H31.25C32.0788 43.75 32.8737 44.0792 33.4597 44.6653C34.0458 45.2513 34.375 46.0462 34.375 46.875V53.125C34.375 53.9538 34.0458 54.7487 33.4597 55.3347C32.8737 55.9208 32.0788 56.25 31.25 56.25H25C24.1712 56.25 23.3763 55.9208 22.7903 55.3347C22.2042 54.7487 21.875 53.9538 21.875 53.125V46.875C21.875 46.0462 22.2042 45.2513 22.7903 44.6653C23.3763 44.0792 24.1712 43.75 25 43.75ZM21.875 34.375V28.125C21.875 27.2962 22.2042 26.5013 22.7903 25.9153C23.3763 25.3292 24.1712 25 25 25H31.25C32.0788 25 32.8737 25.3292 33.4597 25.9153C34.0458 26.5013 34.375 27.2962 34.375 28.125V34.375C34.375 35.2038 34.0458 35.9987 33.4597 36.5847C32.8737 37.1708 32.0788 37.5 31.25 37.5H25C24.1712 37.5 23.3763 37.1708 22.7903 36.5847C22.2042 35.9987 21.875 35.2038 21.875 34.375ZM25 62.5H31.25C32.0788 62.5 32.8737 62.8292 33.4597 63.4153C34.0458 64.0013 34.375 64.7962 34.375 65.625V71.875C34.375 72.7038 34.0458 73.4987 33.4597 74.0847C32.8737 74.6708 32.0788 75 31.25 75H25C24.1712 75 23.3763 74.6708 22.7903 74.0847C22.2042 73.4987 21.875 72.7038 21.875 71.875V65.625C21.875 64.7962 22.2042 64.0013 22.7903 63.4153C23.3763 62.8292 24.1712 62.5 25 62.5ZM43.75 65.625H75C75.8288 65.625 76.6237 65.9542 77.2097 66.5403C77.7958 67.1263 78.125 67.9212 78.125 68.75C78.125 69.5788 77.7958 70.3737 77.2097 70.9597C76.6237 71.5458 75.8288 71.875 75 71.875H43.75C42.9212 71.875 42.1263 71.5458 41.5403 70.9597C40.9542 70.3737 40.625 69.5788 40.625 68.75C40.625 67.9212 40.9542 67.1263 41.5403 66.5403C42.1263 65.9542 42.9212 65.625 43.75 65.625ZM40.625 50C40.625 49.1712 40.9542 48.3763 41.5403 47.7903C42.1263 47.2042 42.9212 46.875 43.75 46.875H75C75.8288 46.875 76.6237 47.2042 77.2097 47.7903C77.7958 48.3763 78.125 49.1712 78.125 50C78.125 50.8288 77.7958 51.6237 77.2097 52.2097C76.6237 52.7958 75.8288 53.125 75 53.125H43.75C42.9212 53.125 42.1263 52.7958 41.5403 52.2097C40.9542 51.6237 40.625 50.8288 40.625 50ZM75 34.375H43.75C42.9212 34.375 42.1263 34.0458 41.5403 33.4597C40.9542 32.8737 40.625 32.0788 40.625 31.25C40.625 30.4212 40.9542 29.6263 41.5403 29.0403C42.1263 28.4542 42.9212 28.125 43.75 28.125H75C75.8288 28.125 76.6237 28.4542 77.2097 29.0403C77.7958 29.6263 78.125 30.4212 78.125 31.25C78.125 32.0788 77.7958 32.8737 77.2097 33.4597C76.6237 34.0458 75.8288 34.375 75 34.375Z" fill="white"/>
</g>
<defs>
<clipPath id="clip0_1629_20314">
<rect width="100" height="100" fill="white"/>
</clipPath>
</defs>
</svg>
