<svg width="100" height="100" viewBox="0 0 100 100" fill="none" xmlns="http://www.w3.org/2000/svg">
<path d="M46.6461 97.9824C18.2676 56.842 13 52.6197 13 37.5C13 16.7893 29.7893 0 50.5 0C71.2107 0 88 16.7893 88 37.5C88 52.6197 82.7324 56.842 54.3539 97.9824C52.4916 100.673 48.5082 100.672 46.6461 97.9824ZM50.5 53.125C59.1295 53.125 66.125 46.1295 66.125 37.5C66.125 28.8705 59.1295 21.875 50.5 21.875C41.8705 21.875 34.875 28.8705 34.875 37.5C34.875 46.1295 41.8705 53.125 50.5 53.125Z" fill="white"/>
</svg>
