<svg width="100" height="100" viewBox="0 0 100 100" fill="none" xmlns="http://www.w3.org/2000/svg">
<path d="M50.007 51.9275C64.2928 51.9275 75.9708 40.2496 75.9708 25.9638C75.9708 11.678 64.2928 0 50.007 0C35.7212 0 24.0435 11.678 24.0435 25.9638C24.0435 40.2496 35.7214 51.9275 50.007 51.9275Z" fill="white"/>
<path d="M94.565 72.6759C93.8846 70.9751 92.9777 69.3879 91.9573 67.9139C86.7418 60.2041 78.6921 55.1021 69.6218 53.8549C68.4881 53.7416 67.2409 53.9682 66.3338 54.6485C61.5719 58.1633 55.9031 59.9773 50.0072 59.9773C44.1114 59.9773 38.4426 58.1633 33.6806 54.6485C32.7735 53.9682 31.5263 53.6281 30.3926 53.8549C21.3223 55.1021 13.1591 60.2041 8.05713 67.9139C7.03673 69.3879 6.12962 71.0886 5.4495 72.6759C5.10943 73.3562 5.22272 74.1498 5.56278 74.8302C6.46989 76.4174 7.60357 78.0049 8.62397 79.3653C10.2112 81.5196 11.912 83.4469 13.8395 85.2609C15.4267 86.8482 17.2407 88.3221 19.055 89.7961C28.0118 96.4855 38.7828 100 49.8939 100C61.0051 100 71.7761 96.4853 80.7329 89.7961C82.5469 88.4356 84.361 86.8482 85.9484 85.2609C87.7624 83.4469 89.5765 81.5194 91.1639 79.3653C92.2976 77.8914 93.3182 76.4174 94.2251 74.8302C94.7917 74.1498 94.905 73.356 94.565 72.6759Z" fill="white"/>
</svg>
