<svg width="100" height="100" viewBox="0 0 100 100" fill="none" xmlns="http://www.w3.org/2000/svg">
<g clip-path="url(#clip0_1137_12910)">
<path d="M94.9472 53.5375C91.6438 53.0652 88.71 55.1928 88.2363 58.2263C87.0465 65.8452 83.3043 72.7967 77.4137 78.3319C62.4214 92.4194 38.0452 92.4083 23.0588 78.3319C8.07527 64.2499 8.07527 41.3364 23.0588 27.2572C28.6951 21.9638 35.8104 18.5125 43.7738 17.2561C47.1984 16.6454 50.8802 16.5398 54.7005 16.9466C59.9459 17.514 64.8282 19.1493 69.2836 21.5504L61.5846 22.7857C58.3681 23.3041 56.2019 26.1748 56.7566 29.1999C57.2475 31.9077 59.7484 33.8203 62.5781 33.8203C62.9075 33.8203 63.2422 33.7959 63.5828 33.7414L84.2227 30.4257C85.7644 30.1762 87.1447 29.3621 88.0518 28.1574C88.9584 26.9555 89.3168 25.4629 89.0506 24.0087L85.516 4.61721C84.9732 1.59487 81.9584 -0.429466 78.6899 0.0778681C75.4734 0.596316 73.3073 3.46973 73.862 6.49485L74.7922 11.5988C69.0683 8.58142 62.7543 6.62932 56.0458 5.9036C51.0216 5.36626 46.1475 5.51574 41.6862 6.3187C31.4154 7.93572 22.083 12.4589 14.6962 19.3994C-4.89874 37.8118 -4.89874 67.7717 14.6962 86.1892C24.4934 95.3979 37.3663 100 50.2362 100C63.1091 100 75.9755 95.3984 85.7762 86.1892C93.4747 78.9553 98.3718 69.8444 99.9365 59.8433C100.411 56.8043 98.1754 53.982 94.9472 53.5375Z" fill="white"/>
</g>
<defs>
<clipPath id="clip0_1137_12910">
<rect width="100" height="100" fill="white"/>
</clipPath>
</defs>
</svg>
