<svg width="100" height="100" viewBox="0 0 100 100" fill="none" xmlns="http://www.w3.org/2000/svg">
<g clip-path="url(#clip0_1137_12898)">
<path d="M99.3115 91.5776L75.6018 67.8678C75.1526 67.4186 74.5667 67.1842 73.9417 67.1842H71.3637C77.5157 60.0557 81.246 50.7788 81.246 40.623C81.246 18.1827 63.0633 0 40.623 0C18.1827 0 0 18.1827 0 40.623C0 63.0633 18.1827 81.246 40.623 81.246C50.7788 81.246 60.0557 77.5157 67.1842 71.3637V73.9417C67.1842 74.5667 67.4381 75.1526 67.8678 75.6018L91.5776 99.3115C92.4955 100.229 93.9798 100.229 94.8977 99.3115L99.3115 94.8977C100.229 93.9798 100.229 92.4955 99.3115 91.5776ZM40.623 71.8715C23.3582 71.8715 9.37454 57.8878 9.37454 40.623C9.37454 23.3582 23.3582 9.37454 40.623 9.37454C57.8878 9.37454 71.8715 23.3582 71.8715 40.623C71.8715 57.8878 57.8878 71.8715 40.623 71.8715Z" fill="white"/>
</g>
<defs>
<clipPath id="clip0_1137_12898">
<rect width="100" height="100" fill="white"/>
</clipPath>
</defs>
</svg>
