<svg width="100" height="100" viewBox="0 0 100 100" fill="none" xmlns="http://www.w3.org/2000/svg">
<path d="M40.8165 84.6935C40.6888 84.3535 40.6448 84.0645 40.6881 83.8306C40.7312 83.5983 40.5827 83.4057 40.242 83.2574C39.9014 83.1091 39.7314 82.9914 39.7314 82.9074C39.7314 82.8225 39.4872 82.7584 38.9978 82.7164C38.5086 82.6737 38.2645 82.652 38.2645 82.652H37.4357H36.7343H18.3669C15.5609 82.652 13.1585 81.6538 11.1599 79.6541C9.1618 77.6558 8.16286 75.254 8.16286 72.4484V27.5501C8.16286 24.7441 9.16158 22.3425 11.1599 20.3442C13.1585 18.3457 15.5609 17.346 18.3669 17.346H38.7749C39.3277 17.346 39.7624 17.2089 40.0821 16.9319C40.4004 16.6556 40.6126 16.2408 40.7194 15.6881C40.8257 15.1355 40.8898 14.6365 40.9112 14.19C40.9322 13.7439 40.922 13.1801 40.8791 12.4999C40.8369 11.8199 40.8156 11.3948 40.8156 11.224C40.8156 10.6713 40.6135 10.194 40.2098 9.78921C39.8058 9.38624 39.3277 9.18408 38.7751 9.18408H18.3669C13.3079 9.18408 8.98153 10.9805 5.38852 14.573C1.7964 18.1656 0 22.4913 0 27.5508V72.4482C0 77.5072 1.7964 81.834 5.38852 85.4253C8.98153 89.0196 13.3079 90.816 18.3669 90.816H38.7758C39.3286 90.816 39.7635 90.6771 40.083 90.4019C40.4013 90.1251 40.6135 89.7108 40.7203 89.1575C40.8266 88.6055 40.8907 88.104 40.9121 87.6593C40.9331 87.2127 40.9229 86.65 40.88 85.9699C40.8373 85.289 40.8165 84.8642 40.8165 84.6935Z" fill="white"/>
<path d="M98.7882 47.1299L64.0947 12.4352C63.2874 11.6284 62.3304 11.2236 61.2249 11.2236C60.1194 11.2236 59.1625 11.6284 58.3543 12.4352C57.5464 13.2432 57.1427 14.2008 57.1427 15.3056V33.673H28.5715C27.4653 33.673 26.5091 34.0778 25.7011 34.8846C24.8931 35.6926 24.4895 36.6495 24.4895 37.755V62.2451C24.4895 63.3504 24.8931 64.3073 25.7011 65.1149C26.5099 65.9212 27.466 66.3271 28.5715 66.3271H57.1429V84.6943C57.1429 85.7989 57.5466 86.7567 58.3545 87.564C59.1625 88.372 60.1194 88.7765 61.2252 88.7765C62.3304 88.7765 63.2874 88.372 64.0949 87.564L98.7882 52.8709C99.5962 52.0623 100 51.1067 100 50.001C100 48.8957 99.5962 47.9378 98.7882 47.1299Z" fill="white"/>
</svg>
