<svg width="100" height="100" viewBox="0 0 100 100" fill="none" xmlns="http://www.w3.org/2000/svg">
<path d="M6.24996 89.5833H93.75C94.3025 89.5833 94.8324 89.3638 95.2231 88.9731C95.6138 88.5824 95.8333 88.0525 95.8333 87.4999V72.9166C95.8333 72.364 95.6138 71.8341 95.2231 71.4434C94.8324 71.0527 94.3025 70.8333 93.75 70.8333H89.5833C87.9257 70.8333 86.336 70.1748 85.1639 69.0027C83.9918 67.8306 83.3333 66.2409 83.3333 64.5833C83.3333 62.9256 83.9918 61.3359 85.1639 60.1638C86.336 58.9917 87.9257 58.3333 89.5833 58.3333H93.75C94.3025 58.3333 94.8324 58.1138 95.2231 57.7231C95.6138 57.3324 95.8333 56.8025 95.8333 56.2499V41.6666C95.8333 41.1141 95.6138 40.5841 95.2231 40.1934C94.8324 39.8027 94.3025 39.5833 93.75 39.5833H6.24996C5.69743 39.5833 5.16752 39.8027 4.77682 40.1934C4.38612 40.5841 4.16663 41.1141 4.16663 41.6666V56.2499C4.16663 56.8025 4.38612 57.3324 4.77682 57.7231C5.16752 58.1138 5.69743 58.3333 6.24996 58.3333H10.4166C12.0742 58.3333 13.6639 58.9917 14.836 60.1638C16.0081 61.3359 16.6666 62.9256 16.6666 64.5833C16.6666 66.2409 16.0081 67.8306 14.836 69.0027C13.6639 70.1748 12.0742 70.8333 10.4166 70.8333H6.24996C5.69743 70.8333 5.16752 71.0527 4.77682 71.4434C4.38612 71.8341 4.16663 72.364 4.16663 72.9166V87.4999C4.16663 88.0525 4.38612 88.5824 4.77682 88.9731C5.16752 89.3638 5.69743 89.5833 6.24996 89.5833ZM66.6666 49.9999C66.6666 49.4474 66.8861 48.9175 67.2768 48.5268C67.6675 48.1361 68.1974 47.9166 68.75 47.9166C69.3025 47.9166 69.8324 48.1361 70.2231 48.5268C70.6138 48.9175 70.8333 49.4474 70.8333 49.9999V54.1666C70.8333 54.7191 70.6138 55.249 70.2231 55.6397C69.8324 56.0304 69.3025 56.2499 68.75 56.2499C68.1974 56.2499 67.6675 56.0304 67.2768 55.6397C66.8861 55.249 66.6666 54.7191 66.6666 54.1666V49.9999ZM66.6666 62.4999C66.6666 61.9474 66.8861 61.4175 67.2768 61.0268C67.6675 60.6361 68.1974 60.4166 68.75 60.4166C69.3025 60.4166 69.8324 60.6361 70.2231 61.0268C70.6138 61.4175 70.8333 61.9474 70.8333 62.4999V66.6666C70.8333 67.2191 70.6138 67.749 70.2231 68.1397C69.8324 68.5304 69.3025 68.7499 68.75 68.7499C68.1974 68.7499 67.6675 68.5304 67.2768 68.1397C66.8861 67.749 66.6666 67.2191 66.6666 66.6666V62.4999ZM66.6666 74.9999C66.6666 74.4474 66.8861 73.9175 67.2768 73.5268C67.6675 73.1361 68.1974 72.9166 68.75 72.9166C69.3025 72.9166 69.8324 73.1361 70.2231 73.5268C70.6138 73.9175 70.8333 74.4474 70.8333 74.9999V79.1666C70.8333 79.7191 70.6138 80.249 70.2231 80.6397C69.8324 81.0304 69.3025 81.2499 68.75 81.2499C68.1974 81.2499 67.6675 81.0304 67.2768 80.6397C66.8861 80.249 66.6666 79.7191 66.6666 79.1666V74.9999ZM31.25 52.0833H56.25C56.8025 52.0833 57.3324 52.3027 57.7231 52.6934C58.1138 53.0841 58.3333 53.614 58.3333 54.1666C58.3333 54.7191 58.1138 55.249 57.7231 55.6397C57.3324 56.0304 56.8025 56.2499 56.25 56.2499H31.25C30.6974 56.2499 30.1675 56.0304 29.7768 55.6397C29.3861 55.249 29.1666 54.7191 29.1666 54.1666C29.1666 53.614 29.3861 53.0841 29.7768 52.6934C30.1675 52.3027 30.6974 52.0833 31.25 52.0833ZM31.25 62.4999H56.25C56.8025 62.4999 57.3324 62.7194 57.7231 63.1101C58.1138 63.5008 58.3333 64.0307 58.3333 64.5833C58.3333 65.1358 58.1138 65.6657 57.7231 66.0564C57.3324 66.4471 56.8025 66.6666 56.25 66.6666H31.25C30.6974 66.6666 30.1675 66.4471 29.7768 66.0564C29.3861 65.6657 29.1666 65.1358 29.1666 64.5833C29.1666 64.0307 29.3861 63.5008 29.7768 63.1101C30.1675 62.7194 30.6974 62.4999 31.25 62.4999ZM31.25 72.9166H56.25C56.8025 72.9166 57.3324 73.1361 57.7231 73.5268C58.1138 73.9175 58.3333 74.4474 58.3333 74.9999C58.3333 75.5525 58.1138 76.0824 57.7231 76.4731C57.3324 76.8638 56.8025 77.0833 56.25 77.0833H31.25C30.6974 77.0833 30.1675 76.8638 29.7768 76.4731C29.3861 76.0824 29.1666 75.5525 29.1666 74.9999C29.1666 74.4474 29.3861 73.9175 29.7768 73.5268C30.1675 73.1361 30.6974 72.9166 31.25 72.9166Z" fill="white"/>
<path d="M19.25 11.7084L13.7083 25.1875C13.595 25.4398 13.5365 25.7131 13.5365 25.9896C13.5365 26.2661 13.595 26.5395 13.7083 26.7917C13.9197 27.3008 14.3242 27.7053 14.8333 27.9167L18.75 29.5C19.9023 29.9925 20.88 30.8199 21.5561 31.875C22.2322 32.9301 22.5756 34.164 22.5416 35.4167H82.2708L21.9791 10.5834C21.7261 10.4775 21.4547 10.4226 21.1804 10.4219C20.9062 10.4211 20.6345 10.4746 20.3809 10.5791C20.1273 10.6836 19.8969 10.8372 19.7028 11.031C19.5088 11.2248 19.3549 11.455 19.25 11.7084Z" fill="white"/>
</svg>
