<svg width="100" height="100" viewBox="0 0 100 100" fill="none" xmlns="http://www.w3.org/2000/svg">
<g clip-path="url(#clip0_1137_12808)">
<rect width="100" height="100" rx="11" fill="white"/>
<path d="M89.2857 0H10.7143C4.79911 0 0 4.79911 0 10.7143V89.2857C0 95.2009 4.79911 100 10.7143 100H89.2857C95.2009 100 100 95.2009 100 89.2857V10.7143C100 4.79911 95.2009 0 89.2857 0ZM78.3705 35.4464C78.4152 36.0714 78.4152 36.7188 78.4152 37.3438C78.4152 56.6964 63.683 78.9955 36.7634 78.9955C28.4598 78.9955 20.7589 76.5848 14.2857 72.433C15.4688 72.567 16.6071 72.6116 17.8125 72.6116C24.6652 72.6116 30.9598 70.2902 35.9821 66.3616C29.5536 66.2277 24.1518 62.0089 22.2991 56.2054C24.5536 56.5402 26.5848 56.5402 28.9062 55.9375C22.2098 54.5759 17.1875 48.683 17.1875 41.5625V41.3839C19.1295 42.4777 21.4062 43.1473 23.7946 43.2366C21.7867 41.901 20.1406 40.089 19.0033 37.9624C17.866 35.8358 17.2728 33.4607 17.2768 31.0491C17.2768 28.3259 17.9911 25.8259 19.2634 23.6607C26.4732 32.5446 37.2991 38.3482 49.442 38.9732C47.3661 29.0402 54.7991 20.9821 63.7277 20.9821C67.9464 20.9821 71.7411 22.7455 74.4196 25.6027C77.7232 24.9777 80.8929 23.75 83.7054 22.0759C82.6116 25.4687 80.3125 28.3259 77.2768 30.1339C80.2232 29.8214 83.0804 28.9955 85.7143 27.8571C83.7277 30.7812 81.2277 33.3705 78.3705 35.4464Z" fill="#1DA1F2"/>
</g>
<defs>
<clipPath id="clip0_1137_12808">
<rect width="100" height="100" fill="white"/>
</clipPath>
</defs>
</svg>
