<svg width="18" height="20" viewBox="0 0 18 20" fill="none" xmlns="http://www.w3.org/2000/svg">
<path d="M9.0013 10.3855C11.8585 10.3855 14.1941 8.04991 14.1941 5.19275C14.1941 2.33559 11.8585 0 9.0013 0C6.14414 0 3.80859 2.33559 3.80859 5.19275C3.80859 8.04991 6.14418 10.3855 9.0013 10.3855Z" fill="white"/>
<path d="M17.911 14.536C17.775 14.1959 17.5936 13.8784 17.3895 13.5836C16.3464 12.0416 14.7365 11.0212 12.9224 10.7718C12.6957 10.7492 12.4462 10.7945 12.2648 10.9305C11.3124 11.6335 10.1787 11.9963 8.99949 11.9963C7.82033 11.9963 6.68656 11.6335 5.73417 10.9305C5.55275 10.7945 5.30331 10.7265 5.07657 10.7718C3.26251 11.0212 1.62987 12.0416 0.609474 13.5836C0.405394 13.8784 0.22397 14.2186 0.087946 14.536C0.0199338 14.6721 0.04259 14.8308 0.110602 14.9669C0.292026 15.2843 0.518762 15.6018 0.722842 15.8739C1.04029 16.3048 1.38044 16.6902 1.76594 17.053C2.08339 17.3705 2.44619 17.6653 2.80904 17.96C4.6004 19.2979 6.75461 20.0008 8.97684 20.0008C11.1991 20.0008 13.3533 19.2979 15.1446 17.96C15.5074 17.688 15.8702 17.3705 16.1877 17.053C16.5505 16.6902 16.9133 16.3047 17.2308 15.8739C17.4576 15.5791 17.6617 15.2843 17.8431 14.9669C17.9564 14.8308 17.979 14.672 17.911 14.536Z" fill="white"/>
</svg>
