<svg width="100" height="100" viewBox="0 0 100 100" fill="none" xmlns="http://www.w3.org/2000/svg">
<g clip-path="url(#clip0_1137_12822)">
<rect width="100" height="100" rx="11" fill="white"/>
<path d="M41.6964 37.9688L62.9464 50.0446L41.6964 62.1205V37.9688ZM100 10.7143V89.2857C100 95.2009 95.2009 100 89.2857 100H10.7143C4.79911 100 0 95.2009 0 89.2857V10.7143C0 4.79911 4.79911 0 10.7143 0H89.2857C95.2009 0 100 4.79911 100 10.7143ZM90.625 50.067C90.625 50.067 90.625 36.7634 88.9286 30.3795C87.9911 26.8527 85.2455 24.0848 81.7411 23.1473C75.4241 21.4286 50 21.4286 50 21.4286C50 21.4286 24.5759 21.4286 18.2589 23.1473C14.7545 24.0848 12.0089 26.8527 11.0714 30.3795C9.375 36.7411 9.375 50.067 9.375 50.067C9.375 50.067 9.375 63.3705 11.0714 69.7545C12.0089 73.2812 14.7545 75.9375 18.2589 76.875C24.5759 78.5714 50 78.5714 50 78.5714C50 78.5714 75.4241 78.5714 81.7411 76.8527C85.2455 75.9152 87.9911 73.2589 88.9286 69.7321C90.625 63.3705 90.625 50.067 90.625 50.067Z" fill="#FF0000"/>
</g>
<defs>
<clipPath id="clip0_1137_12822">
<rect width="100" height="100" fill="white"/>
</clipPath>
</defs>
</svg>
